<?xml version="1.0" encoding="utf-8"?>
<!-- Generator: Adobe Illustrator 19.1.0, SVG Export Plug-In . SVG Version: 6.00 Build 0)  -->
<svg version="1.1" id="Layer_1" xmlns="http://www.w3.org/2000/svg" xmlns:xlink="http://www.w3.org/1999/xlink" x="0px" y="0px"
	 viewBox="0 0 1047.4 473.6" style="enable-background:new 0 0 1047.4 473.6;" xml:space="preserve">
<style type="text/css">
	.st0{fill:#D24444;}
</style>
<g>
	<path class="st0" d="M900.8,10.7c1.5,0.4,3,0.7,4.5,1.1c4.8,1.3,8.9,3.7,12.2,7.4c17.8,19.7,31.4,42.1,43.3,65.6
		c18.3,36.2,33.8,73.7,48.9,111.3c4.1,10.2,8,20.5,12,30.8c2.4,6.2,2.7,12.5,0.3,18.7c-19.3,50-39.2,99.8-63.6,147.6
		c-11.1,21.7-24,42.3-40.5,60.5c-8.3,9.2-20.3,11.6-31.5,6.2c-38-18.4-75.9-37-114.1-55.1c-36.4-17.3-73-34-109.6-51
		c-12.9-6-25.8-12-38.7-18c-6.3-2.9-9-10.3-6.3-16.7c2.6-6.3,9.7-9.8,16-7.7c73.5,24.6,147.1,49.1,220.6,73.7c9.1,3,18,6.7,27,9.7
		c3.4,1.1,7,1.6,10.5,1.9c7.2,0.5,12.8-3.6,14-11.2c1-6.6,1.1-13.3,1.2-20c0.2-14.5-0.1-28.9,0-43.4c0.1-15.4,0.5-30.9,0.8-46.3
		c0.3-14.5,1.1-28.9,0.9-43.4c-0.3-23.8-1.2-47.5-1.7-71.3c-0.3-16.1-0.2-32.2-0.3-48.3c0-7,0.3-14-0.3-20.9
		c-0.9-12.1-8.1-17.5-19.9-14.5c-9.1,2.3-17.8,5.9-26.7,8.9c-25,8.4-49.9,16.7-74.9,25c-50.4,16.9-100.8,33.8-151.1,50.6
		c-6.5,2.2-13.6-1.2-16.3-7.6c-2.7-6.6,0.1-13.8,6.6-16.9c41.5-19.3,83.2-38.4,124.6-58c44.7-21.2,89.2-42.8,133.9-64.2
		c4.1-1.9,8.4-3.2,12.7-4.8C897.3,10.7,899,10.7,900.8,10.7z"/>
	<path class="st0" d="M151.9,10.7c11.5,2.6,21.2,9.2,31.7,14.2c50.7,23.9,101.3,48.2,152,72.1c29,13.7,58.1,27,87.2,40.5
		c6.7,3.1,9.6,10.3,6.9,17c-2.7,6.7-9.8,9.7-16.8,7.4c-73.4-24.5-146.9-49-220.3-73.6c-8.9-3-17.6-6.5-26.5-9.5
		c-3.4-1.1-7-1.6-10.5-1.9c-7.2-0.6-12.8,3.6-14,11.1c-1,6.6-1.1,13.3-1.2,20c-0.2,14.5,0.1,28.9,0,43.4
		c-0.1,15.5-0.5,31.1-0.8,46.6c-0.3,14.4-1.1,28.7-0.9,43.1c0.3,23.8,1.2,47.5,1.7,71.3c0.3,16.1,0.2,32.2,0.4,48.3
		c0,7-0.3,14,0.3,20.9c1,12.3,8.1,17.6,20.1,14.5c9-2.3,17.6-5.9,26.4-8.8c25.1-8.4,50.1-16.7,75.2-25.1
		c50.3-16.8,100.6-33.7,150.9-50.5c6.6-2.2,13.8,1.2,16.4,7.8c2.6,6.5-0.2,13.7-6.6,16.6c-47.9,22.3-96,44.4-143.8,67
		c-39.4,18.6-78.5,37.8-117.8,56.8c-10.1,4.9-19.9,4.2-28.6-2.7c-3.8-3-6.9-7.1-10-10.9c-16.6-20.3-29.4-43-40.8-66.5
		c-21-43.5-39.1-88.2-56.5-133.3c-0.8-2.1-1.3-4.4-1.9-6.6c0-1.9,0-3.9,0-5.8c0.7-2.3,1.2-4.7,2-6.9c3.9-10.3,7.9-20.6,12-30.8
		c15.4-38.4,31.2-76.6,50-113.5c11.6-22.8,25-44.4,42.2-63.5c3.4-3.7,7.4-6.2,12.2-7.4c1.5-0.4,3-0.7,4.4-1.1
		C148.4,10.7,150.2,10.7,151.9,10.7z"/>
	<path class="st0" d="M447.8,236.7c0.1-42.1,33.8-75.8,75.9-75.8c42.2,0,75.9,33.9,75.8,76.1c-0.1,41.9-34.1,75.7-76.1,75.6
		C481.4,312.6,447.7,278.8,447.8,236.7z"/>
</g>
</svg>
